<svg xmlns="http://www.w3.org/2000/svg" width="900" height="220" viewBox="0 0 900 220">
  <defs>
    <linearGradient id="bg" x1="0%" y1="0%" x2="100%" y2="0%">
      <stop offset="0%" stop-color="#050505"/>
      <stop offset="50%" stop-color="#111111"/>
      <stop offset="100%" stop-color="#050505"/>
    </linearGradient>
    <linearGradient id="chrome" x1="0%" y1="0%" x2="0%" y2="100%">
      <stop offset="0%" stop-color="#f0f0f0"/>
      <stop offset="50%" stop-color="#a8a8a8"/>
      <stop offset="100%" stop-color="#6e6e6e"/>
    </linearGradient>
    <linearGradient id="redline" x1="0%" y1="0%" x2="100%" y2="0%">
      <stop offset="0%" stop-color="#8b0000" stop-opacity="0"/>
      <stop offset="20%" stop-color="#c41e1e"/>
      <stop offset="80%" stop-color="#c41e1e"/>
      <stop offset="100%" stop-color="#8b0000" stop-opacity="0"/>
    </linearGradient>
    <pattern id="carbon" width="8" height="8" patternUnits="userSpaceOnUse" patternTransform="rotate(45)">
      <rect width="8" height="8" fill="#0c0c0c"/>
      <line x1="0" y1="0" x2="0" y2="8" stroke="#1a1a1a" stroke-width="1"/>
      <line x1="0" y1="0" x2="8" y2="0" stroke="#161616" stroke-width="1"/>
    </pattern>
  </defs>
  <rect width="900" height="220" rx="4" fill="url(#bg)"/>
  <rect width="900" height="220" rx="4" fill="url(#carbon)" opacity="0.35"/>
  <rect x="0" y="198" width="900" height="3" fill="url(#redline)"/>
  <!-- Abstract LFA silhouette — angular, low, wide -->
  <path d="M 60 155 Q 120 125 200 118 L 420 108 Q 520 100 620 108 L 780 118 Q 820 125 840 140 L 855 155 L 60 155 Z" fill="#141414" stroke="#2a2a2a" stroke-width="1"/>
  <path d="M 200 118 L 280 112 L 400 108 L 520 106 L 640 110 L 720 118" fill="none" stroke="#3a3a3a" stroke-width="1.5"/>
  <path d="M 320 108 L 340 95 L 480 92 L 580 95 L 600 108" fill="#1c1c1c" stroke="#c41e1e" stroke-width="0.8" opacity="0.9"/>
  <ellipse cx="230" cy="158" rx="28" ry="28" fill="#0a0a0a" stroke="url(#chrome)" stroke-width="2"/>
  <ellipse cx="230" cy="158" rx="14" ry="14" fill="none" stroke="#555" stroke-width="1"/>
  <ellipse cx="700" cy="158" rx="30" ry="30" fill="#0a0a0a" stroke="url(#chrome)" stroke-width="2"/>
  <ellipse cx="700" cy="158" rx="15" ry="15" fill="none" stroke="#555" stroke-width="1"/>
  <!-- Spec strip -->
  <text x="72" y="42" font-family="Arial, Helvetica, sans-serif" font-size="10" fill="#666" letter-spacing="3">LEXUS LFA INSPIRED · ANALYST EDITION</text>
  <text x="450" y="58" text-anchor="middle" font-family="Arial, Helvetica, sans-serif" font-size="36" font-weight="300" fill="url(#chrome)" letter-spacing="8">NDANGAENI NEDZAMBA</text>
  <text x="450" y="82" text-anchor="middle" font-family="Arial, Helvetica, sans-serif" font-size="11" fill="#888" letter-spacing="5">QUANT · RESEARCH · INVESTMENT ANALYST</text>
  <text x="450" y="100" text-anchor="middle" font-family="Arial, Helvetica, sans-serif" font-size="10" fill="#555">Germiston, Gauteng · JSE · Econometrics · DCF · Equity Research</text>
  <!-- Dashboard readouts -->
  <text x="72" y="185" font-family="monospace" font-size="9" fill="#c41e1e">V10</text>
  <text x="100" y="185" font-family="monospace" font-size="9" fill="#666">4.8L · PRECISION</text>
  <text x="720" y="185" font-family="monospace" font-size="9" fill="#888">0–100</text>
  <text x="760" y="185" font-family="monospace" font-size="9" fill="#c0c0c0">3.7s</text>
  <text x="820" y="185" font-family="monospace" font-size="9" fill="#666">RPM 9000</text>
</svg>